<?xml version="1.0" encoding="utf-8"?>
<!-- Generator: Adobe Illustrator 17.0.0, SVG Export Plug-In . SVG Version: 6.00 Build 0)  -->
<!DOCTYPE svg PUBLIC "-//W3C//DTD SVG 1.1//EN" "http://www.w3.org/Graphics/SVG/1.1/DTD/svg11.dtd">
<svg version="1.1" id="Layer_1" xmlns="http://www.w3.org/2000/svg" xmlns:xlink="http://www.w3.org/1999/xlink" x="0px" y="0px"
	 width="840.826px" height="202.224px" viewBox="0 0 840.826 202.224" enable-background="new 0 0 840.826 202.224"
	 xml:space="preserve">
<g>
	<defs>
		<rect id="SVGID_1_" width="840.826" height="202.224"/>
	</defs>
	<clipPath id="SVGID_2_">
		<use xlink:href="#SVGID_1_"  overflow="visible"/>
	</clipPath>
	<path clip-path="url(#SVGID_2_)" d="M20.834,199.446v-72.11c0-19.26,3.291-33.121,7.088-40.253
		c3.796-7.127,11.898-10.695,24.306-10.695h7.773c12.404,0,20.506,3.568,24.305,10.695C88.103,94.215,90,107.407,90,126.667v72.779
		h20.558V126.11c0-25.555-3.197-43.332-9.585-53.333c-6.389-9.999-18.845-15-37.362-15H48.614c-18.516,0-32.609,9.668-38.998,19.669
		c-0.453,0.709,11.139-11.501,11.139-11.501l0.079-65.946H0.001v126.179v73.268H20.834z"/>
	<path clip-path="url(#SVGID_2_)" d="M564.441,129.724c0-25.368,4.535-43.702,13.611-55.001
		c9.072-11.294,24.396-16.944,45.973-16.944c21.568,0,36.849,5.65,45.833,16.944c8.979,11.299,13.471,29.633,13.471,55.001
		c0,25.372-4.264,43.798-12.777,55.277c-8.52,11.484-24.077,17.223-46.669,17.223c-22.592,0-38.148-5.739-46.667-17.223
		C568.7,173.522,564.441,155.096,564.441,129.724 M585.831,129.308c0,20.277,2.452,34.489,7.359,42.639
		c4.907,8.149,15.181,12.22,30.835,12.22c15.646,0,25.876-4.026,30.694-12.085c4.812-8.052,7.222-22.264,7.222-42.636
		c0-20.368-2.687-34.398-8.058-42.084c-5.374-7.68-15.324-11.53-29.858-11.53c-14.54,0-24.543,3.85-30.003,11.53
		C588.56,95.048,585.831,109.028,585.831,129.308"/>
	<path clip-path="url(#SVGID_2_)" d="M249.996,60.556v72.777c0,19.261-1.898,32.453-5.694,39.583
		c-3.8,7.127-11.901,10.695-24.306,10.695h-7.773c-12.408,0-20.51-3.568-24.306-10.695c-3.796-7.13-5.694-20.322-5.694-39.583
		V60.556h-20.559v73.334c0,25.556,3.198,43.333,9.584,53.333c6.39,9.999,18.845,14.999,37.362,14.999h15
		c18.516,0,30.969-5,37.358-14.999c6.389-10,9.586-27.777,9.586-53.333V60.556H249.996z"/>
	<path clip-path="url(#SVGID_2_)" d="M752.497,199.446v-72.779c0-19.26,1.896-32.452,5.694-39.584
		c3.798-7.127,11.9-10.695,24.306-10.695h7.771c12.41,0,20.511,3.568,24.306,10.695c3.798,7.132,5.694,20.324,5.694,39.584v72.779
		h20.558V126.11c0-25.555-3.196-43.332-9.582-53.333c-6.389-9.999-18.844-15-37.36-15h-15.001c-18.517,0-30.97,5.001-37.359,15
		c-6.387,10.001-9.587,27.778-9.587,53.333v73.336H752.497z"/>
	<path clip-path="url(#SVGID_2_)" d="M511.22,72.779c-6.391-10-18.847-15-37.362-15h-14.997c-17.496,0-29.573,4.467-36.239,13.396
		c-6.669-8.929-18.748-13.396-36.241-13.396h-14.997c-18.516,0-30.973,5-37.361,15c-6.39,9.997-9.584,27.778-9.584,53.332v73.335
		h20.555v-72.781c0-19.258,1.901-32.449,5.695-39.58c3.799-7.128,11.9-10.695,24.305-10.695h7.777
		c12.405,0,20.506,3.567,24.305,10.695c2.715,5.103,4.456,13.333,5.229,24.649c-0.257,4.487-0.389,9.268-0.389,14.377v73.335h0.854
		h19.701h0.857v-73.335c0-5.109-0.133-9.89-0.389-14.377c0.771-11.316,2.511-19.546,5.226-24.649
		c3.8-7.128,11.903-10.695,24.306-10.695h7.776c12.404,0,20.506,3.567,24.306,10.695c3.793,7.131,5.694,20.322,5.694,39.58v72.781
		h20.558v-73.335C520.805,100.557,517.609,82.776,511.22,72.779"/>
</g>
</svg>
